<svg width="146" height="130" viewBox="0 0 146 130" fill="none" xmlns="http://www.w3.org/2000/svg">
<path fill-rule="evenodd" clip-rule="evenodd" d="M78.1313 208.556C79.4101 207.832 80.6896 207.108 82.1325 206.707C80.4212 207.78 78.5988 208.665 76.697 209.346C77.1806 209.094 77.6559 208.825 78.1313 208.556ZM82.1694 206.692L82.9198 206.52C78.8921 208.95 74.5899 210.891 70.1035 212.304C63.728 214.25 57.1001 215.247 50.4326 215.261C43.9037 215.264 37.3822 214.806 30.9165 213.891C21.469 212.629 12.0118 211.489 2.46659 211.242C-5.39223 210.988 -13.2223 212.288 -20.5747 215.068C-23.4931 216.18 -26.3893 217.34 -29.2877 218.702C-29.2505 218.314 -29.0223 218.211 -28.7649 218.094C-28.5688 218.005 -28.3557 217.909 -28.197 217.673C-28.4709 217.806 -28.7566 217.913 -29.0267 218.014C-29.5874 218.223 -30.0816 218.408 -30.2671 218.757C-30.5309 219.374 -31.1096 219.798 -31.7773 219.864C-33.3038 219.81 -34.4741 220.541 -35.6392 221.269C-36.1697 221.601 -36.6991 221.932 -37.2606 222.187C-37.9478 222.5 -38.5439 222.972 -39.1445 223.448C-39.7879 223.958 -40.4364 224.471 -41.2075 224.798C-41.8218 225.057 -42.4133 225.362 -43.0052 225.667C-44.2386 226.303 -45.4735 226.939 -46.919 227.17C-47.8745 227.323 -48.805 228.106 -49.6474 228.84C-50.4267 229.519 -51.55 230.166 -52.5242 230.168C-53.5357 230.17 -54.3566 230.581 -55.1752 230.991L-55.1754 230.991C-55.6832 231.246 -56.1902 231.499 -56.7413 231.655C-60.2516 232.685 -63.8205 233.504 -67.4291 234.107C-72.5838 234.866 -77.8045 235.081 -83.0053 234.748C-91.6515 234.282 -98.8857 230.593 -105.259 224.992C-111.643 219.38 -115.203 212.389 -115.374 203.779L-115.377 203.609C-115.467 199.131 -115.557 194.655 -115.249 190.185C-115.073 187.287 -114.519 184.424 -113.601 181.67C-112.826 179.399 -112.766 177.056 -112.706 174.716L-112.706 174.714C-112.701 174.529 -112.696 174.344 -112.691 174.158C-112.508 167.497 -111.649 160.955 -109.365 154.663C-107.057 148.31 -103.415 142.756 -98.9533 137.736C-93.0203 131.061 -85.828 125.977 -78.2616 121.33L-77.8152 121.056L-77.8152 121.056C-67.0773 114.463 -56.3286 107.863 -46.9264 99.3613C-40.2081 93.2863 -34.0615 86.7121 -29.3871 78.8763C-27.3187 75.409 -26.106 71.6289 -25.0697 67.7524C-24.4136 65.2986 -23.8111 62.8304 -23.2086 60.3623C-22.1333 55.9577 -21.058 51.5532 -19.6789 47.2307C-18.1329 42.3861 -16.441 37.5881 -13.8899 33.1614C-9.41963 25.4034 -4.05812 18.3341 2.99805 12.7572C10.5596 6.7808 18.8809 2.31297 28.6651 1.19887C37.9771 0.138831 46.6908 1.61501 54.2017 7.63996C58.3083 10.9361 61.2028 15.2438 63.5138 19.9206C65.6002 24.1424 67.4745 28.461 69.349 32.7801L69.3491 32.7803L69.3492 32.7805L69.3493 32.7807L69.3494 32.781L69.3495 32.7812L69.3496 32.7814L69.3497 32.7816L69.3498 32.7818L69.3499 32.782C71.2881 37.2478 73.2264 41.714 75.3995 46.074C75.8991 47.0763 76.392 48.0821 76.8848 49.0878C79.2497 53.9139 81.6139 58.7387 84.7136 63.1634C89.2882 69.6963 95.4268 74.2874 102.595 77.624C105.625 79.0368 108.695 80.3595 111.765 81.6823L111.769 81.6838C113.576 82.4625 115.383 83.2413 117.182 84.0385C123.007 86.6191 128.645 89.5319 133.643 93.5558C142.427 100.627 146.07 109.946 145.648 121.025C145.358 127.47 144.097 133.833 141.907 139.899C141.131 142.108 140.214 144.254 139.3 146.394C139.14 146.767 138.981 147.14 138.823 147.514C137.846 149.815 136.643 152.013 135.231 154.075C134.644 154.93 134.154 155.848 133.661 156.77L133.661 156.771L133.661 156.771C133.206 157.623 132.749 158.478 132.213 159.289C128.194 165.423 123.77 171.281 118.972 176.825C116.082 180.141 112.968 183.232 109.834 186.295C107.327 188.745 104.673 191.05 101.917 193.255C101.245 193.793 100.575 194.337 99.9051 194.882C98.3093 196.18 96.71 197.48 95.0603 198.703C94.4076 199.186 93.6691 199.543 92.9249 199.902C92.2368 200.235 91.5439 200.569 90.9095 201.009C88.3103 202.872 85.5773 204.541 82.7326 206.002C82.4452 206.142 82.1689 206.309 82.1694 206.692ZM22.5543 8.4112L22.426 8.26192C22.0492 8.42339 21.6686 8.57747 21.288 8.73156C20.4529 9.06965 19.6178 9.40773 18.8236 9.82375C18.5333 9.97588 18.2427 10.1272 17.9522 10.2785C14.4723 12.0909 11.004 13.8972 8.33431 16.9772C7.99294 17.3713 7.54558 17.6896 7.08775 18.0154C6.52879 18.4131 5.95419 18.8219 5.53781 19.3933C5.02352 20.0997 4.37876 20.6675 3.72792 21.2407C3.06702 21.8227 2.39985 22.4102 1.85666 23.154C0.193946 25.4297 -1.55269 27.6768 -3.39859 29.8183C-4.21891 30.7699 -4.84427 31.8323 -5.46843 32.8927L-5.46854 32.8929L-5.46868 32.8931C-5.77597 33.4152 -6.08295 33.9367 -6.41278 34.4443C-7.1377 35.7011 -7.79273 36.9971 -8.3749 38.3263C-9.59679 40.7245 -10.6142 43.2218 -11.4164 45.7917C-12.2075 48.3925 -12.8953 51.0391 -13.5451 53.6883C-13.7984 54.7205 -14.0346 55.7578 -14.2708 56.7953C-14.6328 58.385 -14.9948 59.9749 -15.4185 61.5471C-16.2621 64.5905 -16.9079 67.6857 -17.3518 70.8131C-17.4616 71.6299 -17.7301 72.3798 -17.9988 73.1304L-17.9989 73.1305C-18.2429 73.812 -18.4872 74.4941 -18.6129 75.2274C-18.7787 76.5757 -19.1041 77.8993 -19.5824 79.1703C-20.5387 81.4244 -21.6621 83.6036 -22.9431 85.6897C-27.2781 92.6343 -32.7334 98.6266 -38.7636 104.107C-39.0502 104.368 -39.3344 104.632 -39.619 104.896L-39.6191 104.896L-39.6192 104.896L-39.6192 104.896L-39.6193 104.897L-39.6194 104.897L-39.6195 104.897L-39.6196 104.897L-39.6197 104.897C-41.1798 106.346 -42.7473 107.802 -44.7383 108.708C-45.4917 109.003 -46.1779 109.447 -46.7557 110.013C-47.7815 111.144 -48.9776 112.109 -50.301 112.87C-51.8243 113.77 -53.2735 114.777 -54.7237 115.784L-54.7237 115.784C-55.9065 116.606 -57.09 117.428 -58.3149 118.193C-62.7289 120.95 -67.1646 123.667 -71.73 126.157C-73.0026 126.851 -74.2248 127.624 -75.4476 128.397L-75.4476 128.397L-75.4477 128.397L-75.4478 128.397L-75.4478 128.397L-75.4479 128.397L-75.4479 128.397L-75.448 128.397L-75.4481 128.397L-75.4481 128.397C-76.8942 129.312 -78.341 130.226 -79.8728 131.012C-81.1649 131.675 -82.296 132.657 -83.4251 133.637C-83.8759 134.028 -84.3265 134.419 -84.7869 134.79C-92.4149 140.926 -98.5288 148.221 -101.763 157.604C-101.952 158.152 -102.299 158.553 -102.642 158.949C-103.044 159.413 -103.439 159.869 -103.562 160.544C-104.584 166.166 -105.683 171.773 -107.018 177.333C-107.937 181.158 -107.981 185.051 -108.025 188.945C-108.049 191 -108.072 193.056 -108.224 195.101L-108.231 195.203L-108.238 195.295L-108.238 195.296C-108.311 196.308 -108.314 196.362 -109.144 197.345C-109.209 197.422 -109.193 197.571 -109.179 197.714C-109.173 197.767 -109.168 197.82 -109.167 197.868C-109.14 199.029 -109.146 200.192 -109.152 201.354C-109.164 203.731 -109.177 206.108 -108.909 208.475C-108.868 208.836 -108.832 209.198 -108.796 209.561C-108.61 211.413 -108.424 213.273 -107.619 214.991C-104.263 222.144 -98.5547 226.403 -90.9969 228.258C-86.7359 229.303 -82.3724 229.382 -78.0097 229.258C-69.0547 229.031 -60.2516 226.907 -52.1802 223.026C-48.9212 221.466 -45.7084 219.815 -42.4953 218.164C-37.6939 215.697 -32.8917 213.229 -27.9335 211.064C-19.8836 207.478 -11.196 205.541 -2.38273 205.369C8.30829 205.189 18.8946 206.397 29.4775 207.697C36.7332 208.587 44.0079 209.217 51.3254 208.792C61.6175 208.193 71.1065 205.042 79.9696 199.82C85.3258 196.678 90.4596 193.171 95.3346 189.323C108.678 178.756 120.254 166.523 129.679 152.293C133.977 145.804 137.545 138.983 139.481 131.386C140.785 126.263 141.723 121.099 141.381 115.776C141.18 112.652 140.558 109.647 138.756 107.009C136.554 103.772 133.787 100.958 130.588 98.7031C124.783 94.6046 118.304 91.8468 111.823 89.0881C111.035 88.7526 110.246 88.417 109.459 88.079C102.34 85.0216 95.3029 81.8701 89.485 76.4736C86.1378 73.42 83.245 69.9021 80.895 66.0274C75.1598 56.4341 70.8888 46.1396 66.6198 35.8495L66.6194 35.8488L66.1151 34.6335C65.5375 33.2419 64.9937 31.8357 64.45 30.4295L64.4499 30.4292C63.0632 26.8427 61.6765 23.2565 59.7266 19.9137C57.9062 16.7938 55.7952 13.9185 52.891 11.7053C47.7113 7.86869 41.3563 5.96398 34.9261 6.32091C34.7473 6.34992 34.5646 6.34467 34.3877 6.30546C32.6113 5.70088 30.9666 6.23025 29.3186 6.76066L29.3178 6.76092C29.1544 6.81352 28.9909 6.86615 28.8272 6.91767C28.713 6.95356 28.593 6.99875 28.4713 7.04461C28.0912 7.18776 27.6939 7.33743 27.3987 7.23128C26.6264 6.95381 26.0043 7.26112 25.3706 7.5742C24.8568 7.82804 24.3353 8.08567 23.7197 8.03853C23.3853 8.01303 22.9524 8.27119 22.4823 8.55158C22.1029 8.77788 21.6991 9.01867 21.3032 9.13651L22.5543 8.4112ZM-28.4836 212.746C-23.9265 210.657 -19.1347 209.122 -14.211 208.176C-19.6672 209.653 -24.9802 211.615 -30.0868 214.038C-34.4472 216.052 -38.7098 218.259 -42.9724 220.467C-45.0485 221.542 -47.1247 222.617 -49.2121 223.67C-51.234 224.735 -53.3455 225.621 -55.5223 226.317C-55.1971 225.661 -54.6354 225.529 -54.0897 225.402C-53.8233 225.34 -53.5606 225.278 -53.3312 225.157C-51.854 224.377 -50.3588 223.63 -48.8638 222.883C-47.453 222.178 -46.0424 221.473 -44.6472 220.741C-39.3225 217.946 -33.9685 215.213 -28.4836 212.746ZM17.3282 5.77402C22.5711 3.83553 28.0606 2.64309 33.6363 2.23153C27.9875 2.02009 22.3784 3.23853 17.3282 5.77402ZM-44.3427 100.086C-39.3407 96.023 -34.9734 91.2344 -31.3853 85.879C-35.4417 90.8548 -39.8242 95.532 -44.3427 100.086ZM-101.489 144.048C-104.852 148.717 -107.739 153.62 -108.774 159.397C-106.941 154.018 -104.496 148.868 -101.489 144.048ZM60.4127 209.219L60.4129 209.218C65.6358 207.864 70.8587 206.509 75.6901 203.984C70.4932 207.072 64.6947 209.01 58.6844 209.669C59.255 209.519 59.8262 209.371 60.3973 209.223L60.4127 209.219ZM10.129 9.22692C10.2979 9.30493 10.417 9.36656 10.5014 9.41027C10.6219 9.47261 10.6719 9.49846 10.6955 9.48334C12.4233 8.31968 14.2699 7.34301 16.2041 6.56971C16.294 6.55025 16.3718 6.49461 16.4194 6.41588C16.4669 6.33715 16.4799 6.24226 16.4554 6.15354C16.3613 5.85356 16.1053 5.88552 15.9098 5.99366C14.4532 6.80005 13.0011 7.61507 11.4556 8.48257L11.4535 8.48374L11.4508 8.48524C11.0182 8.72803 10.5783 8.97494 10.129 9.22692ZM-27.9337 91.3814C-26.2055 89.6185 -24.76 87.5988 -23.6484 85.3936L-27.9337 91.3814ZM-36.6598 220.921C-34.3107 220.254 -33.3778 219.554 -33.5043 218.359C-33.6253 219.558 -34.3647 219.781 -35.139 220.015C-35.7023 220.185 -36.2842 220.36 -36.6598 220.921ZM-40.2519 223.863L-40.2052 224.029L-45.0016 226.368L-45.0761 226.216L-40.2519 223.863Z" fill="#9EAD8D"/>
</svg>
