<svg width="201" height="239" viewBox="0 0 201 239" fill="none" xmlns="http://www.w3.org/2000/svg">
<path fill-rule="evenodd" clip-rule="evenodd" d="M195.565 220.16C197.014 219.917 198.464 219.674 199.957 219.791C197.982 220.214 195.967 220.422 193.947 220.412C194.488 220.34 195.026 220.25 195.565 220.16ZM199.997 219.79L200.761 219.885C196.145 220.79 191.439 221.143 186.74 220.936C180.083 220.584 173.514 219.254 167.243 216.987C161.107 214.756 155.136 212.095 149.373 209.025C140.927 204.608 132.43 200.302 123.545 196.805C116.247 193.878 108.444 192.421 100.584 192.519C97.4618 192.566 94.3436 192.665 91.1541 192.954C91.3216 192.603 91.5714 192.584 91.8532 192.562C92.0679 192.546 92.3012 192.528 92.531 192.36C92.2278 192.392 91.9229 192.395 91.6345 192.397C91.036 192.402 90.5085 192.407 90.2149 192.671C89.7559 193.161 89.067 193.361 88.4171 193.195C87.0013 192.622 85.6514 192.909 84.3074 193.194C83.6956 193.325 83.0849 193.454 82.4698 193.503C81.7171 193.562 80.9955 193.801 80.2684 194.043C79.4895 194.302 78.7045 194.563 77.8683 194.606C77.2022 194.64 76.542 194.724 75.8815 194.808C74.5051 194.983 73.127 195.159 71.6898 194.881C70.7396 194.698 69.5976 195.115 68.5548 195.518C67.5902 195.889 66.3134 196.113 65.3973 195.782C64.4459 195.438 63.534 195.543 62.6246 195.648L62.6244 195.648C62.0602 195.714 61.497 195.779 60.926 195.736C57.2751 195.504 53.6413 195.052 50.0442 194.385C44.9407 193.335 39.9613 191.752 35.1879 189.66C27.2224 186.265 21.6863 180.324 17.6128 172.881C13.5334 165.425 12.5794 157.637 15.3634 149.488L15.4184 149.327C16.8655 145.089 18.3123 140.852 20.1299 136.757C21.2866 134.093 22.7862 131.593 24.5905 129.319C26.0966 127.45 26.954 125.269 27.8106 123.091L27.8115 123.088C27.8793 122.916 27.9471 122.744 28.0151 122.571C30.4658 116.374 33.5101 110.521 37.8087 105.389C42.1498 100.209 47.4719 96.2352 53.3816 93.0445C61.2399 88.8011 69.7372 86.4837 78.4366 84.7049L78.9498 84.6L78.9499 84.6C91.2952 82.077 103.653 79.5515 115.396 74.7779C123.787 71.3671 131.811 67.2917 138.884 61.5272C142.013 58.9764 144.446 55.839 146.745 52.5507C148.201 50.4693 149.612 48.3561 151.022 46.2429C153.539 42.4717 156.056 38.7006 158.83 35.1105C161.94 31.0867 165.171 27.1568 169.082 23.8695C175.936 18.1083 183.392 13.2991 191.93 10.4719C201.08 7.44213 210.427 6.08978 220.002 8.38928C229.115 10.5781 236.799 14.9455 241.796 23.176C244.527 27.6778 245.774 32.7157 246.346 37.9009C246.863 42.5817 247.147 47.2809 247.431 51.9806L247.431 51.9809L247.431 51.9811L247.431 51.9813L247.431 51.9816L247.431 51.9818L247.431 51.9821L247.431 51.9823L247.431 51.9825L247.431 51.9828C247.725 56.8421 248.019 61.7019 248.57 66.5422C248.697 67.6549 248.816 68.7686 248.935 69.8823C249.507 75.2261 250.078 80.5686 251.478 85.7866C253.542 93.4901 257.74 99.9039 263.335 105.491C265.699 107.855 268.131 110.148 270.564 112.441L270.567 112.443C271.998 113.793 273.43 115.143 274.849 116.508C279.439 120.925 283.741 125.59 287.062 131.081C292.897 140.73 293.133 150.733 288.947 161C286.471 166.957 283.109 172.505 278.976 177.456C277.492 179.266 275.896 180.969 274.305 182.667C274.028 182.964 273.751 183.26 273.474 183.556C271.769 185.385 269.887 187.039 267.855 188.493C267.011 189.097 266.236 189.792 265.458 190.489L265.458 190.49L265.457 190.49C264.738 191.135 264.017 191.782 263.236 192.361C257.361 196.751 251.2 200.743 244.795 204.311C240.946 206.438 236.962 208.277 232.969 210.084C229.776 211.529 226.494 212.787 223.15 213.917C222.334 214.192 221.519 214.475 220.702 214.758C218.759 215.431 216.811 216.106 214.843 216.691C214.064 216.922 213.248 217.005 212.426 217.088C211.666 217.165 210.9 217.242 210.154 217.438C207.074 218.3 203.935 218.934 200.762 219.334C200.444 219.367 200.128 219.429 199.997 219.79ZM211.793 13.0766L211.724 12.8925C211.314 12.9153 210.904 12.93 210.494 12.9446C209.593 12.9766 208.693 13.0087 207.804 13.128C207.48 13.1717 207.155 13.2145 206.83 13.2573C202.94 13.7702 199.063 14.2814 195.501 16.2625C195.046 16.5161 194.516 16.6622 193.975 16.8117C193.313 16.9942 192.634 17.1819 192.047 17.5765C191.322 18.0643 190.522 18.3774 189.714 18.6934C188.894 19.0142 188.066 19.3382 187.302 19.8513C184.961 21.4211 182.551 22.9353 180.084 24.3163C178.988 24.9299 178.037 25.7144 177.087 26.4974L177.087 26.4975L177.087 26.4977C176.62 26.8832 176.153 27.2683 175.669 27.6324C174.558 28.5655 173.499 29.5593 172.498 30.6093C170.529 32.4449 168.719 34.4436 167.086 36.5841C165.453 38.7575 163.902 41.0092 162.385 43.2764C161.794 44.1598 161.217 45.0538 160.641 45.9479C159.757 47.3179 158.873 48.6881 157.937 50.0205C156.103 52.5919 154.438 55.2795 152.951 58.0665C152.569 58.7965 152.06 59.4094 151.551 60.0227L151.55 60.0229C151.088 60.5798 150.625 61.1373 150.256 61.7833C149.639 62.9936 148.881 64.126 147.997 65.1568C146.327 66.9479 144.526 68.6115 142.609 70.1336C136.16 75.1767 128.984 78.9418 121.443 82.0297C121.085 82.1764 120.727 82.3274 120.37 82.4784L120.37 82.4784L120.369 82.4785L120.369 82.4785L120.369 82.4786L120.369 82.4786L120.369 82.4786L120.369 82.4787L120.369 82.4787C118.407 83.3068 116.436 84.1389 114.255 84.3094C113.447 84.3287 112.65 84.5111 111.913 84.8456C110.562 85.558 109.109 86.0549 107.605 86.3182C105.865 86.643 104.159 87.0931 102.452 87.5435L102.452 87.5435C101.06 87.9109 99.6663 88.2785 98.2536 88.5785C93.1626 89.6604 88.0652 90.6962 82.9236 91.4743C81.4903 91.6913 80.0775 91.9995 78.664 92.3078L78.664 92.3078L78.6639 92.3078L78.6638 92.3078L78.6638 92.3078L78.6637 92.3078L78.6636 92.3078L78.6636 92.3079L78.6635 92.3079L78.6634 92.3079C76.9918 92.6725 75.3194 93.0373 73.6112 93.2517C72.1703 93.4329 70.7717 93.9685 69.3755 94.5032C68.818 94.7167 68.2609 94.9301 67.7016 95.1207C58.4349 98.2778 50.1947 103.042 43.9461 110.753C43.5817 111.203 43.1176 111.461 42.6604 111.716C42.1238 112.015 41.5965 112.308 41.2504 112.9C38.3669 117.834 35.4163 122.727 32.26 127.495C30.0891 130.775 28.7158 134.419 27.3423 138.062C26.6175 139.986 25.8926 141.909 25.0504 143.779L25.0085 143.872L24.9709 143.956L24.9704 143.957C24.5561 144.883 24.5339 144.933 23.4183 145.573C23.3311 145.623 23.2946 145.768 23.2595 145.908C23.2463 145.96 23.2334 146.011 23.2181 146.056C22.8459 147.157 22.4427 148.247 22.0395 149.338C21.2149 151.567 20.3905 153.796 19.8321 156.112C19.747 156.465 19.6572 156.818 19.5673 157.171C19.108 158.975 18.6468 160.786 18.8157 162.676C19.5229 170.546 23.4304 176.5 29.898 180.828C33.5445 183.268 37.618 184.834 41.7599 186.21C50.2527 189.059 59.2513 190.074 68.1631 189.188C71.759 188.837 75.3428 188.384 78.9269 187.932C84.2827 187.255 89.6394 186.578 95.0389 186.24C103.83 185.623 112.656 186.775 120.997 189.627C131.104 193.115 140.639 197.871 150.139 202.712C156.653 206.03 163.273 209.11 170.295 211.213C180.171 214.17 190.166 214.455 200.28 212.58C206.388 211.459 212.412 209.919 218.309 207.971C234.462 202.604 249.523 195.068 263.247 184.92C269.505 180.292 275.192 175.103 279.609 168.626C282.586 164.258 285.234 159.727 286.733 154.607C287.612 151.603 288.055 148.567 287.265 145.471C286.303 141.676 284.665 138.086 282.43 134.873C278.377 129.036 273.232 124.229 268.085 119.42C267.459 118.835 266.833 118.25 266.209 117.663C260.565 112.355 255.03 106.987 251.409 99.926C249.308 95.9117 247.793 91.6166 246.91 87.1718C244.801 76.1955 244.309 65.0611 243.817 53.9315L243.817 53.9307L243.759 52.6162C243.692 51.111 243.662 49.6036 243.632 48.0963L243.632 48.0959C243.555 44.2514 243.479 40.4072 242.79 36.5991C242.146 33.0448 241.146 29.6209 239.174 26.5479C235.619 21.171 230.298 17.2076 224.134 15.3438C223.956 15.3099 223.786 15.2425 223.633 15.1451C222.171 13.9694 220.444 13.9044 218.714 13.8392L218.713 13.8391C218.542 13.8327 218.37 13.8262 218.199 13.8186C218.079 13.8133 217.951 13.8147 217.821 13.8162C217.415 13.8207 216.99 13.8255 216.749 13.6247C216.118 13.0999 215.429 13.1759 214.726 13.2533C214.156 13.3161 213.578 13.3798 213.016 13.125C212.71 12.9867 212.215 13.0812 211.678 13.1839C211.244 13.2668 210.782 13.355 210.37 13.3303L211.793 13.0766ZM93.9466 187.633C98.9436 187.228 103.971 187.425 108.922 188.22C103.289 187.742 97.6256 187.768 91.9982 188.299C87.2122 188.699 82.4517 189.316 77.6911 189.932C75.3724 190.232 73.0538 190.533 70.7322 190.808C68.4678 191.117 66.1806 191.228 63.8969 191.138C64.4271 190.632 64.9998 190.701 65.5563 190.767C65.8279 190.8 66.0957 190.832 66.3528 190.797C68.0077 190.569 69.6682 190.378 71.3285 190.188C72.8953 190.008 74.462 189.828 76.0236 189.617C81.9829 188.812 87.9488 188.075 93.9466 187.633ZM207.784 8.81104C213.374 8.78265 218.94 9.53964 224.32 11.0599C219.085 8.92921 213.397 8.15572 207.784 8.81104ZM117.576 76.343C123.666 74.2354 129.408 71.2294 134.611 67.4241C129.097 70.7124 123.38 73.6087 117.576 76.343ZM48.8401 98.1082C44.083 101.346 39.6933 104.966 36.7447 110.039C40.3074 105.612 44.3657 101.609 48.8401 98.1082ZM178.688 214.722L178.689 214.722C184.06 215.235 189.431 215.748 194.835 215.028C188.895 216.153 182.783 215.991 176.91 214.554C177.498 214.608 178.085 214.664 178.673 214.721L178.688 214.722ZM199.838 9.59343C199.97 9.72452 200.061 9.82317 200.126 9.89312C200.217 9.9929 200.256 10.0343 200.283 10.0282C202.305 9.52563 204.374 9.23941 206.456 9.1743C206.547 9.18674 206.639 9.16109 206.711 9.10336C206.782 9.04564 206.827 8.96094 206.834 8.86917C206.848 8.55509 206.597 8.49759 206.376 8.53234C204.732 8.7919 203.089 9.06113 201.339 9.3477L201.337 9.34808L201.334 9.34858C200.845 9.42878 200.347 9.51034 199.838 9.59343ZM135.973 73.7752C138.2 72.7097 140.249 71.3062 142.047 69.6142L135.973 73.7752ZM83.4675 192.518C85.903 192.695 87.0191 192.356 87.3091 191.19C86.7854 192.275 86.0143 192.232 85.2067 192.186C84.6192 192.154 84.0123 192.12 83.4675 192.518ZM79.086 194.054L79.073 194.226L73.7658 194.784L73.748 194.615L79.086 194.054Z" fill="#9EAD8D"/>
<path fill-rule="evenodd" clip-rule="evenodd" d="M115.611 123.06L115.611 123.061L115.611 123.061L115.611 123.061C115.612 123.183 115.613 123.31 115.612 123.445C114.563 123.649 114.366 123.818 114.417 124.697L114.42 124.754C114.444 125.178 114.469 125.628 114.823 125.994C114.995 126.171 115.134 126.38 115.273 126.589C115.406 126.788 115.539 126.988 115.701 127.16C116.369 127.873 117.111 128.485 118.138 128.61C118.468 128.65 118.796 128.706 119.135 128.765L119.136 128.765C119.293 128.792 119.452 128.819 119.615 128.845L119.939 128.611C119.978 128.582 120.016 128.554 120.055 128.525L120.055 128.525L120.055 128.525L120.055 128.525L120.055 128.525L120.055 128.525L120.055 128.525L120.055 128.525L120.055 128.525L120.055 128.525L120.055 128.525L120.055 128.525L120.055 128.525L120.055 128.525L120.055 128.525L120.055 128.525L120.056 128.525L120.056 128.524L120.056 128.524L120.056 128.524L120.056 128.524L120.056 128.524L120.056 128.524L120.056 128.524L120.056 128.524L120.056 128.524L120.056 128.524L120.056 128.524L120.056 128.524L120.056 128.524L120.056 128.524L120.056 128.524L120.056 128.524L120.056 128.524L120.056 128.524L120.056 128.524L120.056 128.524L120.056 128.524L120.056 128.524L120.056 128.524L120.056 128.524L120.056 128.524L120.056 128.524L120.056 128.524L120.056 128.524C120.134 128.466 120.212 128.409 120.292 128.354C120.915 127.928 120.917 127.929 121.69 128.482L121.708 128.494C121.78 128.546 121.871 128.584 121.961 128.62C122.096 128.675 122.227 128.729 122.284 128.829C122.619 129.422 123.136 129.47 123.712 129.449L123.441 128.663L123.139 127.789L123.338 127.698L124.293 129.012C125.242 128.607 124.931 128.011 124.641 127.455C124.623 127.421 124.605 127.386 124.588 127.352C125.238 127.218 125.643 126.979 125.529 126.324C125.437 125.798 125.72 125.847 126.009 125.897L126.009 125.897L126.009 125.897C126.049 125.904 126.089 125.911 126.128 125.916C126.077 124.842 125.66 123.816 124.946 123.01C124.417 122.363 123.933 121.679 123.448 120.995L123.448 120.995L123.448 120.995L123.448 120.995L123.448 120.995L123.448 120.995L123.448 120.995L123.448 120.995L123.448 120.995L123.448 120.995L123.448 120.995L123.448 120.995L123.448 120.995L123.448 120.995L123.448 120.995L123.448 120.994L123.448 120.994L123.448 120.994L123.448 120.994L123.448 120.994L123.447 120.994L123.447 120.994L123.447 120.994C123.198 120.643 122.949 120.291 122.694 119.944C122.536 119.749 122.368 119.562 122.191 119.383L122.074 119.476L122.789 120.7C122.445 120.505 122.154 120.229 121.939 119.897C121.711 119.596 121.46 119.313 121.189 119.051C120.914 118.835 120.625 118.637 120.324 118.46L120.533 119.146C119.598 118.704 119.597 118.706 118.985 119.427L118.98 119.433C118.896 119.532 118.759 119.687 118.68 119.67C118.243 119.574 118.123 119.754 117.993 120.154C117.962 120.247 117.8 120.284 117.621 120.324C117.457 120.361 117.278 120.401 117.176 120.492C116.92 120.744 116.722 121.051 116.598 121.389C116.51 121.606 116.327 121.63 116.149 121.653C115.984 121.674 115.824 121.695 115.745 121.867C115.68 121.989 115.637 122.122 115.62 122.26C115.607 122.517 115.609 122.774 115.611 123.06ZM145.77 117.741C145.665 117.883 145.42 117.923 144.941 118.001C144.946 118.151 144.914 118.298 144.882 118.446C144.813 118.761 144.743 119.083 145.022 119.453C145.38 119.946 145.91 120.286 146.505 120.407C146.572 120.422 146.642 120.441 146.712 120.461C146.938 120.523 147.17 120.587 147.362 120.531C147.926 120.366 148.457 120.482 148.987 120.598C149.244 120.655 149.502 120.711 149.762 120.735C150.686 120.821 151.4 121.4 151.951 122.053C153.288 123.637 155.119 124.309 156.949 124.98L157.097 125.034C157.689 125.251 158.226 124.977 158.772 124.698C158.865 124.65 158.958 124.603 159.052 124.557L159.098 124.535C160.117 124.042 160.357 123.927 160.223 123.021L160.208 122.921C160.122 122.352 160.066 121.981 160.871 122.058C160.931 122.065 161.021 121.852 161.091 121.688L161.101 121.664C161.11 121.643 161.118 121.624 161.126 121.607C161.155 121.541 161.178 121.447 161.2 121.361L161.2 121.361C161.228 121.245 161.254 121.144 161.284 121.143C162.018 121.14 161.724 120.656 161.576 120.414L161.568 120.401C161.519 120.32 161.469 120.236 161.419 120.153L161.419 120.153L161.419 120.153L161.419 120.153L161.419 120.153C161.089 119.601 160.748 119.03 160.27 118.647C160.102 118.513 159.944 118.358 159.785 118.203L159.785 118.203L159.785 118.203L159.785 118.203L159.785 118.203L159.785 118.203L159.785 118.203L159.785 118.203L159.785 118.203L159.785 118.203L159.785 118.203L159.785 118.203L159.785 118.203L159.784 118.202L159.784 118.202L159.784 118.202L159.784 118.202L159.784 118.202L159.784 118.202L159.784 118.202L159.784 118.202L159.784 118.202L159.784 118.202L159.784 118.202L159.784 118.202C159.385 117.812 158.981 117.417 158.403 117.321C158.019 117.291 157.673 117.075 157.477 116.742C157.356 116.606 157.199 116.507 157.025 116.457C156.914 116.411 156.804 116.365 156.693 116.318C156.214 116.116 155.734 115.914 155.241 115.755C154.909 115.648 154.571 115.564 154.232 115.48C153.886 115.394 153.541 115.308 153.203 115.198C152.725 115.042 152.234 114.928 151.75 114.816L151.75 114.816L151.749 114.816C151.653 114.794 151.557 114.772 151.462 114.749C151.353 114.723 151.243 114.695 151.132 114.667L151.132 114.667C150.385 114.478 149.614 114.282 148.833 114.7C148.26 114.972 147.673 115.213 147.073 115.421C147.004 115.891 146.666 116.109 146.33 116.325C146.114 116.464 145.898 116.603 145.755 116.808C145.838 117.335 145.879 117.593 145.77 117.741ZM289.145 131.771C288.556 130.621 288.265 129.427 288.61 128.21C288.456 128.045 288.313 127.896 288.179 127.757L288.178 127.756L288.177 127.755L288.177 127.755C287.91 127.477 287.679 127.237 287.471 126.979C287.064 126.468 286.53 126.036 285.93 126.272C285.213 126.553 284.684 126.58 284.187 125.954C284.12 125.889 284.028 125.858 283.936 125.87C283.164 126.039 282.425 125.876 281.687 125.712L281.687 125.712C281.302 125.626 280.917 125.541 280.527 125.503L280.374 125.487C279.501 125.399 279.455 125.394 278.557 126.149C278.377 126.301 278.208 126.466 278.014 126.656L277.899 126.769C277.837 126.829 277.772 126.892 277.703 126.958C276.937 126.779 276.183 126.551 275.446 126.277C275.245 126.191 275.027 126.142 274.809 126.093C274.35 125.989 273.889 125.885 273.585 125.44C273.195 125.651 272.81 125.546 272.46 125.451C272.232 125.389 272.02 125.331 271.831 125.367L270.808 126.476L271.286 127.133C271.06 127.114 270.928 127.102 270.868 127.097L270.635 127.712C272.738 128.888 274.946 129.862 277.23 130.62C277.586 130.719 277.851 131.022 277.901 131.389C277.547 131.261 277.201 131.141 276.861 131.024C276.112 130.766 275.393 130.519 274.701 130.213C273.814 129.821 272.948 129.38 272.08 128.938L272.08 128.938L272.079 128.938L272.079 128.937L272.078 128.937L272.077 128.937C271.703 128.746 271.329 128.556 270.953 128.369C270.647 129.281 270.649 129.283 271.305 129.669L271.334 129.687C273.243 130.813 275.287 131.65 277.326 132.484L277.326 132.484C277.636 132.612 277.947 132.739 278.256 132.866C280.553 133.815 282.897 134.678 285.417 134.921C285.909 134.969 286.374 134.91 286.838 134.852L286.839 134.852C287.05 134.825 287.261 134.798 287.474 134.782C287.737 134.725 287.953 134.539 288.048 134.287C288.103 133.906 288.306 133.679 288.525 133.435L288.567 133.387C288.609 133.34 288.651 133.292 288.693 133.242C288.719 133.21 288.746 133.178 288.774 133.145C289.08 132.782 289.442 132.353 289.145 131.771ZM254.032 107.406C253.708 107.354 253.395 107.296 253.089 107.239C252.439 107.119 251.82 107.004 251.195 106.962C249.064 106.818 247.227 105.893 245.391 104.968C244.958 104.75 244.526 104.533 244.09 104.325C243.224 103.913 242.708 103.138 242.198 102.372L242.198 102.371C242.103 102.229 242.008 102.086 241.911 101.947C241.838 101.842 241.862 101.67 241.886 101.493C241.898 101.41 241.91 101.325 241.911 101.246L241.941 101.261C242.338 101.466 242.714 101.661 243.258 101.941L242.081 100.321C242.15 100.189 242.224 100.065 242.295 99.9454C242.451 99.684 242.595 99.4423 242.648 99.182C242.744 98.8015 243.038 98.5038 243.417 98.4035C243.667 98.3031 243.959 98.3044 244.265 98.3057C244.401 98.3063 244.539 98.3068 244.678 98.2985C245.115 99.2802 245.965 99.7504 246.916 100.193C247.022 100.061 247.171 99.969 247.323 99.8758C247.593 99.7095 247.872 99.538 247.931 99.1211C248.008 98.9414 248.17 98.8125 248.362 98.7772C248.67 98.7513 248.98 98.7026 249.29 98.6538C250.288 98.4967 251.288 98.3392 252.26 98.944L252.325 98.9849L252.326 98.9853C252.542 99.1213 252.793 99.2795 253.002 99.2524C253.148 99.2337 253.247 99.3261 253.346 99.418C253.482 99.5451 253.618 99.671 253.873 99.4998C254.114 99.3384 254.212 99.5172 254.31 99.6991C254.36 99.7903 254.41 99.8823 254.479 99.9326C254.745 100.103 254.999 100.292 255.238 100.499C255.431 100.718 255.606 100.953 255.76 101.201C255.466 102.621 255.522 104.094 255.923 105.492L254.032 107.406ZM191.046 83.3368L191.045 83.3392C190.852 83.8859 190.662 84.4242 190.445 84.9505C190.428 84.9931 190.291 84.9862 190.119 84.9775L190.118 84.9775L190.118 84.9775C190.027 84.9728 189.925 84.9677 189.826 84.9692C189.875 85.2296 189.904 85.4931 189.914 85.7576C189.887 86.0483 189.845 86.3374 189.789 86.6236L189.778 86.7014C189.701 87.262 189.625 87.8182 188.794 87.6589C188.753 87.6511 188.705 87.6947 188.655 87.7405C188.624 87.769 188.591 87.7984 188.559 87.8167C188.408 87.9029 188.269 88.0006 188.13 88.0977C187.72 88.3844 187.316 88.6664 186.66 88.6338C186.379 88.6199 186.092 88.6374 185.801 88.6551C185.359 88.682 184.908 88.7095 184.462 88.6272C183.76 88.5432 183.073 88.359 182.422 88.0802C181.413 87.5793 180.418 87.0833 179.88 86.0268C179.767 85.6946 179.695 85.3502 179.664 85.0012L180.834 85.0731C180.759 84.8589 180.661 84.6495 180.561 84.4378L180.561 84.4376C180.299 83.8785 180.029 83.3038 180.16 82.5831L181.294 82.6014L180.666 81.7366C180.878 81.5193 181.073 81.2938 181.266 81.0706C181.691 80.5793 182.107 80.0995 182.664 79.7436C183.082 79.4523 183.59 79.3217 184.098 79.3757C184.308 79.4048 184.519 79.4156 184.731 79.4264C185.14 79.4472 185.551 79.4682 185.96 79.6218C186.243 79.7287 186.54 79.7999 186.84 79.8719C187.132 79.9421 187.428 80.013 187.716 80.1184C188.315 80.338 188.828 80.6893 189.341 81.0401C189.648 81.2501 189.954 81.4599 190.279 81.6412C190.564 81.7999 190.756 82.1262 190.947 82.4491C191.033 82.5948 191.118 82.7398 191.212 82.8684C191.157 83.0227 191.102 83.1764 191.048 83.3295L191.046 83.3368ZM159.598 144.389L157.748 141.843L157.493 141.949C157.573 142.17 157.636 142.408 157.699 142.647L157.699 142.647L157.699 142.647C157.841 143.19 157.984 143.732 158.328 144.064C158.471 144.202 158.61 144.35 158.751 144.499L158.751 144.499C159.196 144.971 159.655 145.458 160.32 145.704C160.712 145.849 161.086 146.049 161.46 146.249C162.326 146.712 163.191 147.175 164.273 146.952C164.831 147.428 165.442 147.293 166.028 147.164C166.186 147.129 166.342 147.095 166.494 147.073C167.481 146.931 168.511 146.742 168.954 145.588C169.249 144.821 169.58 144.067 169.907 143.321L169.907 143.321C170.05 142.995 170.192 142.67 170.33 142.347C170.033 141.991 169.764 141.613 169.524 141.217C169.108 140.389 168.318 140.004 167.559 139.784C167.116 139.656 166.728 139.381 166.459 139.004C166.008 138.782 165.569 138.767 165.142 138.752C164.766 138.739 164.4 138.727 164.044 138.572C163.646 138.463 163.22 138.541 162.888 138.785C162.702 138.936 162.49 139.059 162.277 139.183L162.276 139.183L162.276 139.183L162.276 139.183L162.276 139.183L162.276 139.183L162.276 139.183L162.276 139.183L162.276 139.183L162.276 139.183L162.276 139.183L162.276 139.183L162.276 139.183L162.276 139.183L162.276 139.183L162.276 139.183L162.276 139.183L162.276 139.183L162.276 139.183L162.276 139.183L162.276 139.183C161.793 139.463 161.305 139.746 161.109 140.369C161.079 140.464 160.912 140.508 160.733 140.556L160.733 140.556C160.609 140.589 160.479 140.623 160.383 140.677C160.31 140.719 160.264 140.81 160.203 140.93C160.171 140.994 160.134 141.067 160.087 141.145C159.949 140.887 159.771 140.653 159.559 140.452C159.353 140.314 158.918 140.194 158.81 140.299C158.506 140.629 158.254 141.003 158.064 141.41C157.909 141.705 158.087 141.912 158.259 142.113C158.31 142.173 158.361 142.232 158.402 142.293C158.485 142.414 158.569 142.534 158.654 142.654L158.654 142.654C159.03 143.189 159.408 143.724 159.598 144.389ZM189.897 138.104L187.101 137.652C186.758 137.229 186.444 136.782 186.162 136.315C186.061 136.128 186.18 135.781 186.289 135.549C186.318 135.488 186.469 135.484 186.619 135.481C186.685 135.479 186.75 135.478 186.805 135.472C186.794 135.404 186.78 135.334 186.765 135.265C186.679 134.855 186.589 134.426 187.154 134.163C187.288 134.114 187.399 134.016 187.464 133.889C187.583 133.444 187.722 132.976 188.166 132.812C188.318 132.756 188.47 132.694 188.623 132.633C189.274 132.372 189.939 132.106 190.627 132.174C192.305 132.342 193.991 132.625 195.451 133.568C196.334 134.116 197.162 134.748 197.924 135.455C198.322 135.828 198.473 136.395 198.312 136.914C198.186 137.284 198.068 137.656 197.95 138.029L197.95 138.029L197.95 138.029L197.95 138.029L197.949 138.03L197.949 138.03L197.949 138.03L197.949 138.03L197.949 138.03L197.949 138.03L197.949 138.031L197.949 138.031L197.949 138.031L197.949 138.031L197.949 138.032L197.949 138.032L197.949 138.032L197.949 138.032L197.949 138.032L197.948 138.032C197.76 138.625 197.572 139.217 197.353 139.797C197.224 140.14 196.992 140.434 196.689 140.638C194.867 141.734 193.056 141.81 191.135 140.23C191.043 140.154 190.94 140.086 190.837 140.018C190.624 139.877 190.413 139.737 190.309 139.54C190.12 139.077 189.982 138.596 189.897 138.104ZM223.328 178.229L223.986 178.841C223.878 178.341 223.706 177.973 223.156 177.811C222.806 177.707 222.487 177.526 222.167 177.343L222.167 177.343C221.734 177.097 221.297 176.848 220.77 176.783C220.442 176.768 220.116 176.714 219.8 176.623C217.947 175.841 216.091 175.989 214.215 176.392L214.172 176.401L214.142 176.408C213.925 176.452 213.636 176.512 213.607 176.623C213.513 176.978 213.274 177.043 213.02 177.112C212.96 177.129 212.898 177.145 212.838 177.166C212.663 177.227 212.408 177.364 212.384 177.502C212.302 177.968 212.065 178.342 211.826 178.719L211.826 178.719C211.775 178.801 211.723 178.882 211.673 178.965C211.611 179.068 211.504 179.275 211.816 179.374C211.97 179.423 212.096 179.558 212.239 179.712C212.309 179.787 212.383 179.867 212.466 179.943C211.678 180.072 211.108 180.292 211.13 181.012C211.303 181.125 211.467 181.246 211.628 181.365L211.628 181.365L211.628 181.365L211.628 181.365L211.628 181.365L211.628 181.365L211.628 181.365L211.628 181.365L211.628 181.365L211.628 181.365L211.628 181.366L211.628 181.366L211.629 181.366L211.629 181.366L211.629 181.366L211.629 181.366L211.629 181.366L211.629 181.366L211.629 181.366C211.972 181.62 212.298 181.861 212.663 181.976C213.014 182.087 213.352 182.244 213.691 182.401C214.416 182.736 215.142 183.072 215.993 182.96C217.587 183.715 219.237 183.549 220.892 183.383L220.893 183.383L220.894 183.383C221.033 183.369 221.172 183.355 221.311 183.342C221.872 183.346 222.37 182.987 222.542 182.453C222.55 182.43 222.559 182.405 222.568 182.38C222.642 182.166 222.733 181.907 223.156 181.954C223.327 181.935 223.481 181.841 223.576 181.697C223.67 181.553 223.695 181.373 223.644 181.208C223.484 180.788 223.534 180.347 223.584 179.905C223.648 179.335 223.713 178.762 223.328 178.229ZM255.376 71.5014L254.979 70.7522C255.026 70.752 255.067 70.7482 255.104 70.7448C255.172 70.7385 255.224 70.7338 255.259 70.7558C255.489 70.8984 255.722 71.0347 255.955 71.171L255.955 71.1712C256.579 71.5361 257.203 71.9009 257.753 72.3861L257.832 72.4556C258.281 72.8485 258.708 73.2224 258.521 73.9212C258.469 74.1132 258.567 74.3078 258.664 74.5025C258.821 74.8179 258.979 75.1334 258.504 75.4383C258.563 76.2323 257.997 76.5836 257.448 76.9238L257.406 76.9501C257.577 77.3817 257.719 77.8243 257.831 78.2749C257.921 78.7715 257.432 79.2863 256.699 79.5526C256.631 79.5772 256.552 79.5855 256.475 79.5937C256.362 79.6057 256.252 79.6174 256.182 79.6786L256.157 79.7002C255.263 80.4774 255.261 80.4791 254.291 80.0049C253.79 79.7928 253.302 79.5526 252.828 79.2856C252.319 78.939 251.685 78.8305 251.092 78.9883C250.155 79.206 249.17 78.9217 248.488 78.2368C247.869 77.6263 247.729 76.7546 247.981 75.8061L248.494 75.9603L248.509 75.9646L248.608 75.9946L248.644 76.0054L248.654 76.0083L248.659 76.01L248.684 76.0174C249.072 76.1341 249.494 76.261 250.007 76.4149C249.875 76.2331 249.756 76.0706 249.646 75.921L249.643 75.9168L249.64 75.9127L249.637 75.9088L249.635 75.9051L249.632 75.9015C249.402 75.588 249.214 75.3306 249.032 75.0686C248.815 74.7565 248.833 74.7259 249.056 74.3649C249.112 74.2732 249.182 74.1601 249.265 74.0156C249.363 73.8433 249.519 73.7044 249.676 73.5655C249.98 73.2955 250.285 73.0255 250.16 72.5095L251.401 71.5337C252.164 70.9316 252.924 70.5114 253.928 71.1241C254.201 71.2915 254.54 71.3487 254.891 71.4078C255.052 71.435 255.215 71.4626 255.376 71.5014ZM140.899 161.269C141.503 161.949 142.484 162.144 143.295 161.744L142.981 160.445C143.642 160.938 144.269 161.218 145.07 160.76C145.013 160.454 144.972 160.146 144.947 159.836C144.944 159.754 144.962 159.666 144.98 159.579C145.03 159.334 145.078 159.096 144.647 159.024L145.391 158.565C145.293 158.077 145.162 157.424 145.039 156.812C145.126 156.778 145.212 156.744 145.296 156.711L145.297 156.71C145.566 156.604 145.821 156.504 146.069 156.389C146.114 156.37 146.14 156.188 146.102 156.142C146.018 156.042 145.86 155.897 145.781 155.922C145.701 155.946 145.627 156.009 145.556 156.069C145.47 156.142 145.387 156.212 145.302 156.21C145.207 156.208 145.113 156.112 144.985 155.981C144.918 155.913 144.842 155.836 144.752 155.757L145.532 155.836C145.334 155.563 145.14 155.295 144.948 155.03L144.948 155.03L144.947 155.03C144.243 154.059 143.574 153.137 142.897 152.222C142.856 152.167 142.783 152.138 142.708 152.109C142.649 152.086 142.59 152.063 142.544 152.027C142.292 151.828 142.002 151.674 141.718 151.523C141.158 151.225 140.62 150.939 140.434 150.337C139.752 149.878 139.274 150.171 138.824 150.446C138.53 150.626 138.247 150.799 137.927 150.748C137.834 150.936 137.758 151.135 137.683 151.329C137.523 151.746 137.371 152.141 137.084 152.351C136.77 152.582 136.659 152.913 136.55 153.236C136.439 153.567 136.33 153.89 136.01 154.095C135.928 154.148 135.93 154.501 136.021 154.621C136.183 154.837 136.258 155.085 136.333 155.335C136.417 155.614 136.503 155.897 136.712 156.144C137.534 157.112 138.283 158.14 138.952 159.22C139.306 159.794 139.788 160.233 140.266 160.67C140.482 160.866 140.697 161.062 140.899 161.269ZM269.468 153.429L269.468 153.429L269.468 153.429C268.941 153.761 268.468 154.059 268.636 154.816C267.659 154.518 267.259 154.091 267.385 153.198C267.417 152.971 267.424 152.744 267.431 152.516L267.431 152.516L267.431 152.516L267.431 152.515L267.431 152.515L267.431 152.515L267.431 152.515L267.431 152.515L267.431 152.515L267.431 152.515L267.431 152.515L267.431 152.515L267.431 152.515L267.431 152.515L267.431 152.515L267.431 152.515C267.443 152.123 267.455 151.727 267.593 151.325C267.704 151.003 267.652 150.63 267.599 150.251C267.56 149.973 267.521 149.693 267.545 149.426C267.574 149.091 267.706 148.765 267.837 148.44C267.896 148.294 267.955 148.149 268.004 148.003L268.676 148.105L268.41 148.903L268.575 149.001L269.318 148.258C269.364 148.275 269.422 148.306 269.487 148.341C269.658 148.433 269.882 148.553 270.082 148.524C271.743 148.28 273.274 148.774 274.789 149.323C275.084 149.429 275.35 149.613 275.617 149.797L275.618 149.797C275.801 149.923 275.985 150.05 276.18 150.152L276.369 150.252C277.389 150.788 277.641 150.92 278.108 151.851C278.466 152.564 278.843 153.326 278.723 154.206C278.651 154.566 278.699 154.94 278.861 155.271C279.316 155.951 279.031 156.319 278.476 156.67C278.318 156.772 278.178 156.899 278.061 157.046C277.317 157.97 277.203 158.013 276.222 157.634C275.012 157.167 273.974 156.416 272.938 155.665L272.938 155.665C272.729 155.514 272.521 155.363 272.311 155.215C271.697 154.78 271.107 154.311 270.525 153.848L270.525 153.847C270.268 153.643 270.013 153.44 269.757 153.242C269.662 153.307 269.564 153.369 269.468 153.429ZM244.876 151.168C245.017 151.151 245.159 151.134 245.301 151.119C245.138 150.611 245.168 150.083 245.66 150.082C246.363 150.082 246.202 149.705 246.064 149.396C246.037 149.336 246.004 149.276 245.971 149.217C245.857 149.013 245.747 148.813 245.895 148.609C246.127 148.291 246.105 147.949 246.083 147.611C246.074 147.465 246.065 147.321 246.076 147.179C246.106 146.798 246.014 146.256 245.76 146.037C245.309 145.681 244.786 145.43 244.229 145.299C243.903 145.213 243.559 145.198 243.215 145.184C242.988 145.175 242.761 145.166 242.538 145.136C242.255 145.098 241.973 145.05 241.691 145.001C240.891 144.864 240.091 144.727 239.272 144.827C238.913 144.871 238.549 144.871 238.184 144.872L238.184 144.872C237.499 144.872 236.815 144.873 236.166 145.162C235.55 145.489 234.844 145.607 234.153 145.495C233.385 145.346 233.107 145.658 232.816 146.504C232.781 146.606 232.729 146.72 232.677 146.835C232.555 147.106 232.43 147.382 232.517 147.508C232.744 147.835 232.559 147.974 232.375 148.113C232.206 148.241 232.037 148.368 232.19 148.641C233.578 149.453 235.196 149.837 236.806 150.219C236.99 150.263 237.174 150.307 237.358 150.351C238.502 150.627 239.67 150.795 240.839 150.963L240.84 150.963C241.409 151.045 241.978 151.127 242.545 151.221C243.331 151.351 244.097 151.26 244.876 151.168ZM283.46 108.996L283.46 108.996L283.41 108.974C282.257 108.46 281.141 107.865 280.07 107.194C279.839 107.047 279.596 106.912 279.352 106.776C278.475 106.289 277.58 105.792 277.131 104.696C277.802 104.684 278.33 105.005 278.877 105.337C279.375 105.64 279.889 105.953 280.542 106.033C279.962 105.413 279.295 104.99 278.602 104.55C278.069 104.213 277.522 103.866 276.986 103.412L278.071 103.277C277.958 103.044 277.839 102.799 277.72 102.555L278.685 101.527C278.754 101.555 278.83 101.588 278.913 101.624L278.913 101.624L278.914 101.624C279.118 101.712 279.358 101.815 279.604 101.898C280.945 102.351 280.956 102.347 282.447 101.911L282.484 101.9C282.659 101.856 282.838 101.831 283.019 101.826C284.391 101.741 285.735 101.793 287.006 102.455C287.586 102.745 288.105 103.145 288.534 103.633C288.629 103.731 288.754 103.796 288.889 103.816C289.013 103.827 289.123 103.903 289.177 104.015C289.232 104.127 289.223 104.26 289.155 104.364C288.983 104.743 288.968 105.144 288.952 105.545C288.939 105.869 288.927 106.193 288.832 106.504C288.768 106.781 288.828 107.073 288.995 107.304C289.192 107.679 288.849 108.6 288.49 108.752C288.415 108.784 288.324 108.775 288.232 108.767C288.048 108.75 287.863 108.734 287.817 109.032C287.794 109.274 287.786 109.516 287.795 109.759C286.068 110.173 284.75 109.578 283.46 108.996ZM228.877 110.494L229.51 109.852C229.474 109.483 229.225 109.273 228.974 109.061C228.748 108.87 228.52 108.678 228.447 108.367C228.37 108.226 228.207 108.156 228.053 108.199C227.899 108.242 227.795 108.385 227.803 108.545C227.794 108.604 227.662 108.643 227.531 108.682C227.47 108.7 227.41 108.718 227.362 108.738C227.347 108.698 227.325 108.648 227.304 108.598C227.258 108.492 227.212 108.386 227.235 108.367C227.844 107.887 227.275 107.497 227.027 107.335C226.82 107.2 226.614 107.06 226.407 106.92C225.565 106.35 224.719 105.776 223.743 105.461L223.73 105.457C223.224 105.293 222.579 105.085 222.362 105.934C222.349 105.977 222.245 106.021 222.181 106.025C221.479 106.06 221.32 106.457 221.465 107.074C221.592 107.613 221.269 107.559 221.017 107.517L220.973 107.51L220.701 108.498L221.703 109.317C221.523 109.336 221.36 109.282 221.201 109.23C220.929 109.14 220.667 109.053 220.343 109.338L220.362 109.52L220.362 109.521L220.362 109.522L220.362 109.523L220.362 109.523L220.362 109.524C220.381 109.702 220.402 109.901 220.421 110.099C220.43 110.196 220.452 110.305 220.474 110.413C220.524 110.654 220.573 110.895 220.475 111.005C220.068 111.461 220.37 111.64 220.643 111.802C220.678 111.823 220.713 111.843 220.746 111.865C221.125 112.107 221.515 112.332 221.905 112.557C222.179 112.714 222.453 112.872 222.723 113.037C222.875 113.15 223.015 113.279 223.142 113.421L222.995 113.622C222.064 113.092 221.132 112.561 220.086 111.965C220.442 112.815 221.013 113.151 221.64 113.511C222.634 114.077 223.696 114.512 224.799 114.806C226.196 115.183 227.626 115.298 228.77 114.091C228.87 114.001 228.979 113.92 229.095 113.851L229.563 110.828L228.877 110.494ZM206.841 87.632L207.685 87.7686L207.478 87.4011C207.358 87.1881 207.246 86.9883 207.126 86.7773C207.248 86.6422 207.37 86.5038 207.493 86.3643C207.783 86.0341 208.079 85.6978 208.398 85.3849C208.675 85.1136 208.992 84.8852 209.337 84.7073C209.447 84.6511 209.534 84.7196 209.633 84.7971C209.769 84.904 209.927 85.0281 210.195 84.867C210.443 84.7179 210.874 84.915 211.267 85.0946L211.267 85.0948L211.268 85.095L211.269 85.0956C211.35 85.1325 211.429 85.1686 211.504 85.2008C211.62 85.2503 211.718 85.3631 211.817 85.4772C212.025 85.7179 212.239 85.9646 212.641 85.6362L213.545 86.7455C213.565 86.7702 213.588 86.7927 213.611 86.8152L213.631 86.8344L213.642 86.8454L216.676 87.3354C216.858 87.1826 217.052 87.0446 217.256 86.9227C217.583 86.7571 218.11 86.8198 218.092 87.1101C218.07 87.4554 218.29 87.5709 218.499 87.6806C218.68 87.7758 218.853 87.8666 218.852 88.0993C218.14 89.0373 217.875 89.2763 217.038 89.6848C217.517 89.9543 217.935 90.1892 218.461 90.4842C218.45 90.544 218.447 90.6205 218.443 90.7016C218.435 90.8933 218.426 91.1101 218.317 91.1879C218.109 91.3365 217.907 91.4984 217.705 91.6605C216.958 92.2606 216.206 92.864 215.127 92.813C214.755 92.8349 214.382 92.8162 214.014 92.757C213.332 92.5669 212.663 92.3281 211.995 92.0894L211.781 92.0132L211.654 91.9682C211.431 91.8889 211.212 91.7965 210.993 91.7041C210.834 91.6369 210.675 91.5696 210.514 91.5075C210.29 91.4207 210.098 91.2695 209.906 91.1182C209.591 90.8695 209.276 90.6209 208.818 90.6596C208.587 90.2167 208.193 90.0056 207.789 89.7898L207.789 89.7896C207.666 89.7235 207.541 89.6569 207.42 89.5831C207.079 89.4065 206.824 89.098 206.715 88.7293C206.605 88.3607 206.651 87.9641 206.841 87.632ZM158.752 95.695L157.663 96.486C156.895 96.9247 156.238 97.535 155.744 98.2699C155.532 98.5828 155.409 98.9446 155.286 99.3093C155.16 99.6799 155.034 100.053 154.811 100.381C154.76 100.455 154.827 100.668 154.904 100.76C155.142 101.047 155.4 101.317 155.676 101.567C156.194 102.031 156.83 102.233 157.467 102.436C157.659 102.497 157.851 102.557 158.039 102.626C159.651 103.206 161.206 103.39 162.674 102.28C162.778 102.19 162.912 102.141 163.05 102.144C163.559 102.244 163.688 101.937 163.816 101.631C163.886 101.464 163.956 101.297 164.088 101.198C164.039 100.464 164.359 99.8368 164.67 99.225C164.781 99.0081 164.891 98.7931 164.982 98.5761C165.295 97.8378 165.197 97.3705 164.722 96.9652C164.627 96.8847 164.534 96.8024 164.439 96.7199C163.702 96.0741 162.95 95.4151 161.852 95.4462C161.705 95.4499 161.556 95.4128 161.406 95.3757C161.093 95.2979 160.778 95.2197 160.477 95.5152C160.368 95.5821 160.233 95.5876 160.118 95.5298C159.628 95.0388 159.25 95.3224 158.87 95.6075C158.831 95.637 158.791 95.6664 158.752 95.695ZM197.594 155.422C197.965 155.57 198.237 155.678 198.767 155.889C198.673 155.714 198.603 155.584 198.547 155.48L198.547 155.48L198.547 155.479C198.459 155.315 198.408 155.22 198.354 155.126L198.353 155.124C198.22 154.892 198.149 154.766 198.163 154.651C198.179 154.515 198.314 154.394 198.609 154.131L198.61 154.129C198.628 154.114 198.649 154.097 198.67 154.081C198.732 154.032 198.799 153.98 198.796 153.934C198.735 153.381 199.075 152.865 199.607 152.705C200.191 152.468 200.817 152.349 201.449 152.355C203.81 152.532 205.877 153.569 207.824 154.846C208.052 154.995 208.208 155.254 208.363 155.512C208.434 155.63 208.505 155.748 208.582 155.855L208.096 156.132C208.434 156.536 208.568 156.921 208.147 157.381C208.013 157.578 207.986 157.828 208.074 158.05C208.266 158.376 208.094 158.555 207.926 158.73C207.811 158.849 207.698 158.967 207.703 159.128C207.366 158.992 207.183 159.194 206.999 159.397C206.838 159.574 206.676 159.752 206.411 159.708C206.22 159.676 206.02 159.663 205.822 159.65C205.454 159.627 205.088 159.604 204.776 159.458C203.703 158.988 202.684 158.405 201.735 157.717C201.35 157.377 200.845 157.207 200.335 157.246C199.545 157.347 198.742 157.195 198.04 156.811L198.016 156.798C197.436 156.471 197.432 156.468 197.594 155.422ZM209.368 125.124C209.449 125.282 209.551 125.429 209.67 125.56C210.122 125.714 210.569 125.813 211.008 125.91C211.216 125.956 211.422 126.001 211.626 126.052C212.889 126.371 214.187 126.696 215.556 126.358C216.47 126.132 217.062 125.572 217.072 124.808C217.075 124.589 217.152 124.376 217.228 124.164C217.366 123.784 217.502 123.407 217.21 123.008C217.788 122.447 217.288 121.99 216.941 121.723C215.973 120.976 214.968 120.238 213.738 119.97C213.512 119.92 213.276 119.917 213.04 119.913L213.04 119.913C212.822 119.909 212.604 119.906 212.393 119.866C212.043 119.801 211.701 119.694 211.332 119.579L211.332 119.579C211.164 119.527 210.991 119.473 210.809 119.421L209.32 121.017L209.419 121.212L209.485 121.343L209.486 121.345C209.569 121.511 209.654 121.68 209.757 121.884L207.665 121.76C207.637 121.912 207.624 122.074 207.611 122.227C207.584 122.538 207.561 122.81 207.429 122.882C207.214 122.997 207.092 123.17 206.97 123.343C206.85 123.512 206.731 123.682 206.523 123.798C206.727 123.86 206.912 123.763 207.091 123.669C207.367 123.523 207.628 123.386 207.914 123.866L207.191 124.028C207.413 124.723 207.939 124.676 208.485 124.626L208.486 124.626C208.539 124.621 208.593 124.616 208.647 124.612C208.436 124.449 208.226 124.285 207.965 124.081C208.101 124.005 208.248 123.953 208.402 123.926C208.59 123.931 208.773 123.984 208.935 124.08C208.977 124.108 208.984 124.182 208.991 124.261C208.998 124.333 209.004 124.409 209.039 124.456C209.078 124.509 209.146 124.544 209.212 124.579C209.285 124.616 209.356 124.653 209.387 124.713C209.415 124.767 209.397 124.843 209.379 124.92C209.362 124.993 209.345 125.068 209.368 125.124ZM240.287 126.829L241.017 126.604C240.648 126.048 240.12 125.928 239.584 125.807C239.128 125.704 238.668 125.599 238.295 125.224C238.511 125.155 238.735 125.111 238.961 125.091C239.311 125.126 239.659 125.179 240.003 125.25C239.718 124.908 239.322 124.677 238.885 124.6C238.925 123.924 238.942 123.627 239.079 123.402C239.186 123.226 239.366 123.095 239.687 122.86C239.91 122.91 240.137 122.977 240.365 123.045L240.366 123.045C240.891 123.2 241.428 123.358 241.948 123.318C242.449 123.279 242.868 123.44 243.285 123.6C243.553 123.703 243.819 123.805 244.106 123.854C244.815 124.023 245.495 124.298 246.124 124.668C246.5 124.838 246.819 125.114 247.041 125.463C247.258 125.888 247.504 126.566 247.314 126.87C247.097 127.218 247.19 127.441 247.286 127.67C247.327 127.769 247.369 127.87 247.387 127.982C247.464 128.489 247.464 129.036 247.044 129.462C246.955 129.553 246.875 129.67 246.797 129.786L246.797 129.786C246.659 129.989 246.524 130.187 246.351 130.222C245.684 130.385 244.992 130.416 244.312 130.316C243.076 130.059 241.857 129.723 240.663 129.309C240.464 129.243 240.31 129.038 240.129 128.797L240.129 128.797L240.129 128.797C240.037 128.674 239.938 128.543 239.823 128.415L240.528 128.452C240.177 128.092 240.226 127.711 240.271 127.351C240.294 127.17 240.316 126.994 240.287 126.829ZM264.826 174.966L265.707 174.856C265.352 174.504 264.974 174.177 264.574 173.876C264.398 173.764 264.018 173.703 263.909 173.807C263.669 174.035 263.4 174.003 263.15 173.974C262.989 173.955 262.835 173.937 262.701 173.991C262.364 174.127 262.073 174.068 261.785 174.009C261.672 173.986 261.56 173.963 261.445 173.952C261.212 173.93 260.976 173.875 260.742 173.821C260.344 173.73 259.95 173.64 259.581 173.705C259.214 173.77 258.878 173.718 258.545 173.667C258.331 173.634 258.118 173.602 257.899 173.601C257.514 173.6 257.129 173.606 256.744 173.612L256.744 173.612L256.744 173.612L256.743 173.612L256.743 173.612L256.742 173.612L256.741 173.612L256.542 173.615C256.439 173.616 256.336 173.618 256.233 173.619L254.956 174.547C255.395 174.885 255.171 175.048 254.946 175.213C254.769 175.341 254.592 175.471 254.729 175.685C254.833 175.858 255.031 175.877 255.231 175.897C255.509 175.925 255.791 175.952 255.83 176.394C255.728 176.385 255.623 176.368 255.52 176.351C255.109 176.283 254.712 176.217 254.51 176.708C255.04 177.37 255.784 177.47 256.529 177.571L256.636 177.585C256.781 177.597 256.926 177.621 257.067 177.658C258.589 178.166 260.147 178.56 261.726 178.836C261.911 178.867 262.088 178.943 262.265 179.018C262.429 179.089 262.594 179.159 262.765 179.194L262.836 179.208C263.465 179.338 264.116 179.472 264.66 178.947C264.508 178.671 264.24 178.57 263.978 178.471C263.662 178.352 263.353 178.235 263.263 177.817L265.33 178.152L265.69 177.332L264.197 176.441C265.232 176.22 265.26 176.123 264.826 174.966ZM199.94 101.376C200.085 101.284 200.196 101.175 200.301 101.072C200.503 100.873 200.686 100.693 201.059 100.694L200.703 101.203C200.835 101.304 200.967 101.404 201.099 101.505L201.1 101.505L201.1 101.505L201.1 101.505L201.1 101.505C201.457 101.776 201.813 102.046 202.151 102.337C202.27 102.439 202.383 102.73 202.323 102.828C202.131 103.148 202.131 103.491 202.13 103.831C202.129 104.072 202.129 104.31 202.06 104.538C201.956 104.789 201.79 105.009 201.577 105.178C201.528 105.222 201.442 105.227 201.356 105.231C201.271 105.236 201.186 105.24 201.137 105.284C201.029 105.431 200.949 105.597 200.901 105.773L200.848 105.731C200.175 105.198 200.14 105.171 199.169 105.469C198.799 105.582 198.488 105.471 198.174 105.358C197.981 105.289 197.788 105.22 197.578 105.201L197.661 105.629L197.706 105.864C197.638 105.851 197.563 105.845 197.489 105.84C197.334 105.829 197.187 105.819 197.132 105.742C196.111 104.324 196.087 104.293 194.83 103.912C194.891 104.455 195.263 104.623 195.657 104.8C195.919 104.918 196.189 105.04 196.386 105.278C196.323 105.31 196.256 105.354 196.19 105.396C196.054 105.483 195.925 105.566 195.869 105.531C195.745 105.454 195.619 105.381 195.492 105.308C194.764 104.886 194.042 104.469 193.895 103.424C193.888 103.376 193.881 103.332 193.875 103.29C193.828 103.001 193.804 102.849 194.088 102.636C194.286 102.453 194.434 102.221 194.515 101.962C194.693 101.512 194.853 101.054 195.02 100.576L195.02 100.576L195.02 100.575C195.089 100.377 195.159 100.176 195.232 99.9699L195.638 100.121C195.889 100.117 196.011 99.9286 196.116 99.7672C196.259 99.5464 196.369 99.3761 196.733 99.7966C196.802 99.8762 196.86 99.7943 196.93 99.6966C197.041 99.5408 197.181 99.3447 197.438 99.6989C197.55 99.8534 197.858 99.866 198.155 99.8781L198.155 99.8781L198.155 99.8781C198.286 99.8835 198.415 99.8887 198.523 99.9062C198.56 100.041 198.595 100.173 198.631 100.304L198.714 100.614C198.802 100.613 198.889 100.611 198.977 100.61L198.929 100.285L198.847 99.7275C199.183 99.8749 199.419 99.978 199.656 100.082L199.953 100.212C199.949 100.571 199.944 100.973 199.94 101.376ZM184.656 165.23L186.051 165.624C186.121 165.43 186.169 165.228 186.194 165.023C186.162 164.846 186.119 164.671 186.067 164.5L186.061 164.472L186.061 164.472C186.03 164.308 185.979 164.048 186.02 164.031C186.339 163.9 186.405 163.601 186.472 163.302C186.543 162.982 186.614 162.663 186.996 162.553C186.971 162.432 186.94 162.312 186.903 162.194C186.588 162.254 186.508 162.052 186.429 161.852C186.388 161.746 186.347 161.642 186.272 161.576C185.949 161.293 185.573 161.154 185.201 161.016C184.939 160.918 184.678 160.822 184.44 160.676C183.413 160.038 182.255 159.645 181.056 159.526L178.893 161.619L179.732 162.774C179.5 162.842 179.266 162.789 179.039 162.738C178.713 162.664 178.401 162.594 178.132 162.888C178.464 163.644 178.943 164.259 179.666 164.5C180.264 164.7 180.842 164.948 181.419 165.196C181.976 165.434 182.532 165.673 183.105 165.868C183.645 166.082 184.231 166.15 184.804 166.063L184.656 165.23ZM222.6 160.997L223.856 161.744L223.654 161.008C223.662 161.007 223.671 161.006 223.681 161.005C223.697 161.002 223.715 160.999 223.732 160.995C223.79 160.984 223.846 160.973 223.875 160.996C224.268 161.322 224.737 161.54 225.238 161.63C225.55 161.705 225.851 161.822 226.132 161.978C226.609 162.252 227.189 162.271 227.68 162.028C227.644 161.819 227.606 161.603 227.588 161.503L228.589 161.52C228.631 161.578 228.666 161.622 228.693 161.655C228.734 161.705 228.754 161.73 228.748 161.745C228.66 161.978 228.565 162.208 228.474 162.427L228.404 162.598C228.697 162.88 228.963 163.136 229.36 163.519L228.241 163.714L228.363 164.422L228.466 165.024L227.943 165.504L228.326 166.031C228.058 166.908 227.529 167.201 226.673 167.103C226.32 167.062 225.964 167.04 225.603 167.018L225.603 167.018C225.013 166.982 224.41 166.946 223.78 166.824L224.155 165.814C223.665 165.428 223.099 165.15 222.495 164.999C222.048 164.877 221.632 164.642 221.224 164.41L221.223 164.41C221.046 164.31 220.87 164.21 220.693 164.121C220.72 163.583 221.04 163.545 221.378 163.505C221.468 163.495 221.558 163.484 221.645 163.464C221.621 163.422 221.601 163.377 221.582 163.332C221.541 163.238 221.501 163.148 221.433 163.108C220.808 162.745 220.718 162.406 221.202 162.019C221.518 161.767 221.848 161.533 222.173 161.302C222.317 161.2 222.46 161.099 222.6 160.997ZM193.61 190.504L192.443 190.076L192.428 190.118L192.404 190.183C192.29 190.481 192.191 190.743 192.41 191.115C192.907 191.96 193.702 192.401 194.495 192.84C194.699 192.953 194.903 193.066 195.101 193.185C195.499 193.425 196.172 193.109 196.565 192.666C196.727 192.493 196.91 192.341 197.11 192.214C197.624 191.915 197.808 191.262 197.528 190.733C197.357 190.343 197.275 190.058 197.552 189.703C197.819 189.408 197.802 188.953 197.513 188.675C197.487 188.644 197.461 188.614 197.434 188.583C197.216 188.331 196.992 188.073 197.106 187.657C197.078 187.463 196.955 187.295 196.777 187.212C196.687 187.181 196.565 187.211 196.451 187.24C196.331 187.27 196.219 187.298 196.163 187.249C196.092 187.189 196.082 187.066 196.071 186.939C196.061 186.823 196.051 186.702 195.994 186.622C195.595 186.062 194.972 186.069 194.417 186.216C194.268 186.256 194.138 186.346 194.004 186.438C193.802 186.578 193.592 186.723 193.303 186.704C193.277 186.703 193.245 186.863 193.208 187.053L193.208 187.053L193.208 187.053C193.179 187.204 193.146 187.374 193.109 187.493C193.045 187.623 192.965 187.744 192.869 187.853L193.574 188.823C193.211 188.626 193.029 188.528 192.879 188.446L192.193 188.945C192.318 189.054 192.439 189.159 192.557 189.262L192.557 189.262C192.875 189.539 193.172 189.797 193.458 190.067C193.51 190.117 193.53 190.201 193.557 190.309C193.571 190.367 193.587 190.433 193.61 190.504ZM214.753 141.249L215.937 140.827C215.819 140.329 215.6 139.928 215.015 139.83C215.097 139.428 215.372 139.395 215.658 139.36C215.855 139.336 216.056 139.311 216.203 139.166L215.859 138.446C215.894 138.159 216.1 138.122 216.317 138.084C216.531 138.046 216.757 138.006 216.839 137.72C216.943 137.365 217.193 137.436 217.461 137.513C217.637 137.563 217.821 137.615 217.975 137.549C218.236 137.483 218.511 137.499 218.765 137.593C219.116 137.687 219.431 137.868 219.748 138.051C220.187 138.304 220.63 138.559 221.178 138.584C221.329 138.591 221.472 138.792 221.635 139.022C221.716 139.137 221.803 139.259 221.898 139.367C221.437 139.446 221.404 139.77 221.37 140.095C221.338 140.404 221.306 140.715 220.908 140.818C220.918 140.957 220.981 141.095 221.045 141.235C221.193 141.56 221.348 141.901 220.882 142.313L220.067 141.954L220.141 142.349L220.217 142.759C219.9 143.129 219.488 142.95 219.196 142.824L219.156 142.806C218.21 142.393 217.175 142.228 216.15 142.327C215.501 142.384 214.932 142.121 214.753 141.249ZM185.469 116.157L186.108 113.889C185.994 113.79 185.88 113.672 185.761 113.548C185.484 113.261 185.183 112.949 184.818 112.81C183.893 112.436 182.917 112.208 181.924 112.134C180.78 112.077 179.58 112.217 179.293 113.727C179.275 113.824 179.194 113.908 179.103 114.004C179.055 114.053 179.005 114.106 178.959 114.164C179.057 114.256 179.145 114.355 179.229 114.45C179.4 114.643 179.554 114.816 179.739 114.86C179.863 114.89 179.987 114.917 180.111 114.944C180.851 115.107 181.58 115.266 182.118 115.898C182.683 115.93 183.154 116.195 183.621 116.457C183.902 116.615 184.181 116.772 184.478 116.877L185.469 116.157Z" fill="#F5D3AB"/>
</svg>
